<svg width="40" height="41" viewBox="0 0 40 41" fill="none" xmlns="http://www.w3.org/2000/svg">
<path d="M20.0402 37.3108C30.3433 37.3108 38.6956 28.9585 38.6956 18.6554C38.6956 8.35231 30.3433 0 20.0402 0C9.73708 0 1.38477 8.35231 1.38477 18.6554C1.38477 28.9585 9.73708 37.3108 20.0402 37.3108Z" fill="#FFDD67"/>
<path opacity="0.8" d="M37.3696 14.497C37.9505 12.3288 36.0011 9.92274 33.0155 9.1228C30.0298 8.32286 27.1386 9.432 26.5577 11.6001C25.9768 13.7683 27.9262 16.1744 30.9118 16.9743C33.8974 17.7742 36.7887 16.6651 37.3696 14.497Z" fill="#FF717F"/>
<path opacity="0.8" d="M9.24646 20.7724C11.7786 18.9997 12.7877 16.0721 11.5004 14.2333C10.2131 12.3945 7.11686 12.3409 4.58477 14.1136C2.05267 15.8862 1.04356 18.8139 2.33085 20.6527C3.61814 22.4914 6.71436 22.545 9.24646 20.7724Z" fill="#FF717F"/>
<path d="M16.5093 10.793C14.8437 7.9281 12.9781 6.72883 11.3124 7.06196C9.64678 7.32846 8.24763 9.12738 7.71462 12.3921C7.64799 12.7252 8.31425 13.1916 8.58076 12.7918C9.44691 11.4593 10.6462 10.793 11.9787 10.5932C13.3112 10.3267 14.6438 10.5932 15.9097 11.5259C16.2428 11.7258 16.7092 11.0595 16.5093 10.793Z" fill="#664E27"/>
<path d="M29.5015 8.46143C27.8358 5.66312 25.9703 4.39722 24.3046 4.73035C22.639 4.99686 21.2398 6.8624 20.7068 10.0605C20.6402 10.3936 21.3064 10.86 21.5729 10.4602C22.4391 9.1277 23.6384 8.46143 24.9709 8.26155C26.3034 7.99505 27.636 8.26155 28.9019 9.19432C29.1684 9.3942 29.6348 8.79457 29.5015 8.46143Z" fill="#664E27"/>
<path d="M27.303 16.3233C23.1055 20.5208 17.7754 21.4535 12.3786 18.9217C11.7124 18.5886 11.3126 19.3881 11.8456 19.9878C13.7112 22.1198 17.0425 23.7188 20.7736 23.0526C24.5047 22.3863 27.1031 19.7213 28.1025 17.0562C28.4356 16.4566 27.836 15.8569 27.303 16.3233Z" fill="#664E27"/>
<path d="M16.8429 29.8488C16.8429 29.8488 18.0422 29.449 17.5758 27.85C17.1094 26.1843 12.9785 27.85 10.9131 27.0505C10.9131 27.0505 12.5788 26.5174 12.0458 25.1183C11.5128 23.8524 6.98216 23.386 2.51819 26.8506C-1.94579 30.3152 0.919151 38.3103 6.44915 39.3097C10.3135 39.976 16.1766 39.9094 16.9095 38.2437C17.5091 36.9112 15.6436 36.4448 15.6436 36.4448C15.6436 36.4448 17.9755 36.4448 17.9755 34.6459C17.9755 33.5799 17.1094 33.5799 17.1094 33.5799C17.1094 33.5799 19.0416 33.3133 19.0416 31.5144C19.1082 29.982 16.8429 29.8488 16.8429 29.8488Z" fill="white"/>
<path d="M17.6427 29.9145C19.1085 28.9151 17.8426 26.5166 16.0437 26.7831C14.5112 27.0496 11.8462 27.0496 11.8462 27.0496C11.8462 27.0496 12.7123 26.7164 12.5124 25.5838C12.3126 24.4511 10.7135 22.7855 4.31739 25.3839C1.91883 26.3833 0.386426 28.3821 0.11992 30.8473C-0.146586 33.5123 1.05269 36.6438 2.98486 38.0429C5.11691 39.642 10.1139 40.5747 14.911 39.642C18.1091 39.0423 17.7759 36.9769 16.4434 36.6438C18.6421 36.244 18.842 34.3785 17.7759 33.8455C20.2411 33.0459 19.5749 29.9811 17.6427 29.9145ZM15.9104 33.3125C14.6445 33.4457 11.2465 33.7122 11.2465 33.7122C11.2465 33.7122 13.5785 34.1786 16.0437 33.7788C18.2423 33.4457 18.1091 35.6444 15.0443 36.0441C13.5785 36.244 11.2465 36.3106 11.2465 36.3106C11.2465 36.3106 13.3786 36.6438 14.5112 36.5105C17.4428 36.1108 17.1097 38.3094 14.378 38.7092C9.51426 39.3755 5.58329 38.7092 3.65112 37.31C0.919438 35.3113 -0.679598 28.6486 4.65052 26.1834C7.04907 25.0508 10.98 24.0514 11.5797 25.3839C12.3792 27.3161 8.78136 27.516 8.78136 27.516C8.78136 27.516 11.7129 27.9157 15.9104 27.4493C17.043 27.3161 17.9092 28.7152 16.51 29.5147C15.3108 30.2476 11.2465 30.5141 11.2465 30.5141C11.2465 30.5141 13.4452 30.5808 16.51 30.3143C18.9752 30.1144 19.1751 32.9127 15.9104 33.3125Z" fill="#CCCFD4"/>
<path d="M23.2392 29.8488C23.2392 29.8488 22.0399 29.449 22.5063 27.85C22.9727 26.1843 27.1035 27.85 29.1689 27.0505C29.1689 27.0505 27.5033 26.5174 28.0363 25.1183C28.5693 23.8524 33.0999 23.386 37.5639 26.8506C42.0278 30.3152 39.0963 38.3103 33.6329 39.2431C29.7686 39.9094 23.9054 39.8427 23.1726 38.1771C22.5729 36.8445 24.4385 36.3782 24.4385 36.3782C24.4385 36.3782 22.1065 36.3782 22.1065 34.5792C22.1065 33.5132 22.9727 33.5132 22.9727 33.5132C22.9727 33.5132 21.0405 33.2467 21.0405 31.4478C20.9739 29.982 23.2392 29.8488 23.2392 29.8488Z" fill="white"/>
<path d="M22.3058 33.7802C21.3064 34.3132 21.5063 36.1788 23.6383 36.5785C22.3058 36.9116 21.9727 38.9771 25.1707 39.5767C30.0345 40.5095 34.9648 39.6433 37.0969 37.9777C38.9624 36.5785 40.2283 33.4471 39.9618 30.782C39.6953 28.3168 38.1629 26.318 35.7643 25.3186C29.3016 22.7202 27.7692 24.3192 27.5693 25.5185C27.3694 26.6512 28.2356 26.9843 28.2356 26.9843C28.2356 26.9843 25.5705 26.9843 24.0381 26.7178C22.2392 26.3847 20.9733 28.8498 22.439 29.8492C20.5069 29.9825 19.8406 33.0473 22.3058 33.7802ZM23.5717 30.3156C26.6365 30.5821 28.8352 30.5155 28.8352 30.5155C28.8352 30.5155 24.771 30.249 23.5717 29.5161C22.1725 28.7166 23.0387 27.3174 24.1713 27.4507C28.4354 27.9837 31.3004 27.5173 31.3004 27.5173C31.3004 27.5173 27.7025 27.2508 28.5021 25.3853C29.1017 24.0527 33.0327 25.0521 35.4312 26.1848C40.7613 28.7166 39.0957 35.3126 36.4306 37.3114C34.5651 38.7106 30.5675 39.4435 25.7037 38.7106C22.9054 38.3108 22.5723 36.1121 25.5705 36.5119C26.7031 36.6451 28.8352 36.312 28.8352 36.312C28.8352 36.312 26.5033 36.2454 25.0375 36.0455C21.9727 35.6457 21.8394 33.4471 24.0381 33.7802C26.4366 34.1133 28.8352 33.7136 28.8352 33.7136C28.8352 33.7136 25.4372 33.5137 24.1713 33.3138C20.9066 32.9141 21.1065 30.1157 23.5717 30.3156Z" fill="#CCCFD4"/>
</svg>
